<svg xmlns="http://www.w3.org/2000/svg" xmlns:xlink="http://www.w3.org/1999/xlink" zoomAndPan="magnify" preserveAspectRatio="xMidYMid meet" version="1.0" viewBox="49.63 141.93 276.06 75.61"><defs><g/><clipPath id="2334c3b0a0"><path d="M 49.628906 142.953125 L 76 142.953125 L 76 216.53125 L 49.628906 216.53125 Z M 49.628906 142.953125 " clip-rule="nonzero"/></clipPath><clipPath id="8f1a239358"><path d="M 52.628906 142.953125 L 72.832031 142.953125 C 73.628906 142.953125 74.390625 143.269531 74.953125 143.832031 C 75.515625 144.394531 75.832031 145.160156 75.832031 145.953125 L 75.832031 213.386719 C 75.832031 214.183594 75.515625 214.945312 74.953125 215.507812 C 74.390625 216.070312 73.628906 216.386719 72.832031 216.386719 L 52.628906 216.386719 C 51.832031 216.386719 51.070312 216.070312 50.507812 215.507812 C 49.945312 214.945312 49.628906 214.183594 49.628906 213.386719 L 49.628906 145.953125 C 49.628906 145.160156 49.945312 144.394531 50.507812 143.832031 C 51.070312 143.269531 51.832031 142.953125 52.628906 142.953125 " clip-rule="nonzero"/></clipPath><clipPath id="e7b9257e91"><path d="M 75.832031 142.875 L 98.605469 142.875 L 98.605469 216.316406 L 75.832031 216.316406 Z M 75.832031 142.875 " clip-rule="nonzero"/></clipPath><clipPath id="8a2655a342"><path d="M 78.832031 142.875 L 95.242188 142.875 C 96.898438 142.875 98.242188 144.21875 98.242188 145.875 L 98.242188 213.308594 C 98.242188 214.964844 96.898438 216.308594 95.242188 216.308594 L 78.832031 216.308594 C 77.175781 216.308594 75.832031 214.964844 75.832031 213.308594 L 75.832031 145.875 C 75.832031 144.21875 77.175781 142.875 78.832031 142.875 " clip-rule="nonzero"/></clipPath><clipPath id="5857f5dd0d"><path d="M 97 142 L 127 142 L 127 217 L 97 217 Z M 97 142 " clip-rule="nonzero"/></clipPath><clipPath id="7699f12365"><path d="M 96.9375 144.796875 L 115.75 141.925781 L 126.863281 214.664062 L 108.050781 217.539062 Z M 96.9375 144.796875 " clip-rule="nonzero"/></clipPath><clipPath id="4d2d83882c"><path d="M 99.90625 144.347656 L 112.484375 142.425781 C 113.273438 142.304688 114.074219 142.5 114.714844 142.972656 C 115.355469 143.445312 115.785156 144.148438 115.90625 144.9375 L 126.082031 211.578125 C 126.203125 212.363281 126.007812 213.164062 125.535156 213.808594 C 125.0625 214.449219 124.359375 214.875 123.570312 214.996094 L 110.988281 216.917969 C 110.203125 217.039062 109.402344 216.839844 108.761719 216.371094 C 108.117188 215.898438 107.691406 215.191406 107.570312 214.40625 L 97.390625 147.765625 C 97.273438 146.976562 97.46875 146.175781 97.941406 145.535156 C 98.410156 144.894531 99.117188 144.464844 99.90625 144.347656 " clip-rule="nonzero"/></clipPath></defs><g clip-path="url(#2334c3b0a0)"><g clip-path="url(#8f1a239358)"><path fill="#ff914d" d="M 49.628906 142.953125 L 76.140625 142.953125 L 76.140625 216.53125 L 49.628906 216.53125 Z M 49.628906 142.953125 " fill-opacity="1" fill-rule="nonzero"/></g></g><g clip-path="url(#e7b9257e91)"><g clip-path="url(#8a2655a342)"><path fill="#ffbd59" d="M 75.832031 142.875 L 98.035156 142.875 L 98.035156 216.316406 L 75.832031 216.316406 Z M 75.832031 142.875 " fill-opacity="1" fill-rule="nonzero"/></g></g><g clip-path="url(#5857f5dd0d)"><g clip-path="url(#7699f12365)"><g clip-path="url(#4d2d83882c)"><path fill="#ffde59" d="M 96.9375 144.796875 L 115.75 141.925781 L 126.863281 214.664062 L 108.050781 217.539062 Z M 96.9375 144.796875 " fill-opacity="1" fill-rule="nonzero"/></g></g></g><g fill="#07060e" fill-opacity="1"><g transform="translate(141.374921, 173.00155)"><g><path d="M 17.640625 -13.578125 C 19.128906 -13.296875 20.351562 -12.546875 21.3125 -11.328125 C 22.269531 -10.117188 22.75 -8.734375 22.75 -7.171875 C 22.75 -5.753906 22.398438 -4.503906 21.703125 -3.421875 C 21.015625 -2.347656 20.007812 -1.507812 18.6875 -0.90625 C 17.375 -0.300781 15.820312 0 14.03125 0 L 2.609375 0 L 2.609375 -26.46875 L 13.53125 -26.46875 C 15.332031 -26.46875 16.882812 -26.175781 18.1875 -25.59375 C 19.488281 -25.007812 20.472656 -24.195312 21.140625 -23.15625 C 21.804688 -22.125 22.140625 -20.953125 22.140625 -19.640625 C 22.140625 -18.097656 21.726562 -16.804688 20.90625 -15.765625 C 20.09375 -14.734375 19.003906 -14.003906 17.640625 -13.578125 Z M 7.921875 -15.546875 L 12.78125 -15.546875 C 14.039062 -15.546875 15.007812 -15.828125 15.6875 -16.390625 C 16.375 -16.960938 16.71875 -17.78125 16.71875 -18.84375 C 16.71875 -19.90625 16.375 -20.726562 15.6875 -21.3125 C 15.007812 -21.894531 14.039062 -22.1875 12.78125 -22.1875 L 7.921875 -22.1875 Z M 13.265625 -4.328125 C 14.554688 -4.328125 15.5625 -4.628906 16.28125 -5.234375 C 17.007812 -5.835938 17.375 -6.695312 17.375 -7.8125 C 17.375 -8.945312 16.992188 -9.835938 16.234375 -10.484375 C 15.472656 -11.128906 14.445312 -11.453125 13.15625 -11.453125 L 7.921875 -11.453125 L 7.921875 -4.328125 Z M 13.265625 -4.328125 "/></g></g></g><g fill="#07060e" fill-opacity="1"><g transform="translate(164.803001, 173.00155)"><g><path d="M 18.46875 0 L 12.734375 -8.90625 L 7.546875 0 L 1.5625 0 L 9.890625 -13.34375 L 1.4375 -26.46875 L 7.546875 -26.46875 L 13.265625 -17.59375 L 18.4375 -26.46875 L 24.421875 -26.46875 L 16.109375 -13.15625 L 24.578125 0 Z M 18.46875 0 "/></g></g></g><g fill="#07060e" fill-opacity="1"><g transform="translate(189.861212, 173.00155)"><g><path d="M 20.625 -26.46875 L 20.625 -22.1875 L 13.578125 -22.1875 L 13.578125 0 L 8.265625 0 L 8.265625 -22.1875 L 1.21875 -22.1875 L 1.21875 -26.46875 Z M 20.625 -26.46875 "/></g></g></g><g fill="#07060e" fill-opacity="1"><g transform="translate(210.787224, 173.00155)"><g><path d="M 7.921875 -17.75 C 8.609375 -18.863281 9.5 -19.734375 10.59375 -20.359375 C 11.695312 -20.992188 12.957031 -21.3125 14.375 -21.3125 L 14.375 -15.734375 L 12.96875 -15.734375 C 11.300781 -15.734375 10.039062 -15.34375 9.1875 -14.5625 C 8.34375 -13.78125 7.921875 -12.414062 7.921875 -10.46875 L 7.921875 0 L 2.609375 0 L 2.609375 -21.015625 L 7.921875 -21.015625 Z M 7.921875 -17.75 "/></g></g></g><g fill="#07060e" fill-opacity="1"><g transform="translate(225.154777, 173.00155)"><g><path d="M 1.25 -10.578125 C 1.25 -12.703125 1.671875 -14.585938 2.515625 -16.234375 C 3.367188 -17.878906 4.519531 -19.140625 5.96875 -20.015625 C 7.425781 -20.898438 9.050781 -21.34375 10.84375 -21.34375 C 12.414062 -21.34375 13.785156 -21.023438 14.953125 -20.390625 C 16.128906 -19.765625 17.070312 -18.972656 17.78125 -18.015625 L 17.78125 -21.015625 L 23.125 -21.015625 L 23.125 0 L 17.78125 0 L 17.78125 -3.078125 C 17.101562 -2.085938 16.160156 -1.269531 14.953125 -0.625 C 13.753906 0.0195312 12.375 0.34375 10.8125 0.34375 C 9.039062 0.34375 7.425781 -0.109375 5.96875 -1.015625 C 4.519531 -1.929688 3.367188 -3.21875 2.515625 -4.875 C 1.671875 -6.53125 1.25 -8.429688 1.25 -10.578125 Z M 17.78125 -10.5 C 17.78125 -11.789062 17.523438 -12.894531 17.015625 -13.8125 C 16.515625 -14.738281 15.832031 -15.445312 14.96875 -15.9375 C 14.113281 -16.4375 13.191406 -16.6875 12.203125 -16.6875 C 11.222656 -16.6875 10.316406 -16.445312 9.484375 -15.96875 C 8.648438 -15.488281 7.972656 -14.785156 7.453125 -13.859375 C 6.929688 -12.929688 6.671875 -11.835938 6.671875 -10.578125 C 6.671875 -9.316406 6.929688 -8.210938 7.453125 -7.265625 C 7.972656 -6.316406 8.65625 -5.585938 9.5 -5.078125 C 10.34375 -4.578125 11.242188 -4.328125 12.203125 -4.328125 C 13.191406 -4.328125 14.113281 -4.570312 14.96875 -5.0625 C 15.832031 -5.550781 16.515625 -6.257812 17.015625 -7.1875 C 17.523438 -8.113281 17.78125 -9.21875 17.78125 -10.5 Z M 17.78125 -10.5 "/></g></g></g><g fill="#07060e" fill-opacity="1"><g transform="translate(249.909708, 173.00155)"><g><path d="M 1.25 -10.5 C 1.25 -12.675781 1.691406 -14.578125 2.578125 -16.203125 C 3.460938 -17.835938 4.6875 -19.101562 6.25 -20 C 7.820312 -20.894531 9.617188 -21.34375 11.640625 -21.34375 C 14.242188 -21.34375 16.398438 -20.691406 18.109375 -19.390625 C 19.816406 -18.085938 20.960938 -16.265625 21.546875 -13.921875 L 15.8125 -13.921875 C 15.507812 -14.828125 15 -15.539062 14.28125 -16.0625 C 13.5625 -16.582031 12.671875 -16.84375 11.609375 -16.84375 C 10.085938 -16.84375 8.882812 -16.289062 8 -15.1875 C 7.113281 -14.082031 6.671875 -12.519531 6.671875 -10.5 C 6.671875 -8.507812 7.113281 -6.960938 8 -5.859375 C 8.882812 -4.753906 10.085938 -4.203125 11.609375 -4.203125 C 13.753906 -4.203125 15.15625 -5.164062 15.8125 -7.09375 L 21.546875 -7.09375 C 20.960938 -4.8125 19.8125 -3 18.09375 -1.65625 C 16.375 -0.320312 14.222656 0.34375 11.640625 0.34375 C 9.617188 0.34375 7.820312 -0.101562 6.25 -1 C 4.6875 -1.894531 3.460938 -3.160156 2.578125 -4.796875 C 1.691406 -6.429688 1.25 -8.332031 1.25 -10.5 Z M 1.25 -10.5 "/></g></g></g><g fill="#07060e" fill-opacity="1"><g transform="translate(271.783475, 173.00155)"><g><path d="M 15.0625 0 L 7.921875 -8.953125 L 7.921875 0 L 2.609375 0 L 2.609375 -28.0625 L 7.921875 -28.0625 L 7.921875 -12.09375 L 14.984375 -21.015625 L 21.875 -21.015625 L 12.625 -10.46875 L 21.953125 0 Z M 15.0625 0 "/></g></g></g><g fill="#07060e" fill-opacity="1"><g transform="translate(141.374921, 211.840078)"><g><path d="M 17.640625 -13.578125 C 19.128906 -13.296875 20.351562 -12.546875 21.3125 -11.328125 C 22.269531 -10.117188 22.75 -8.734375 22.75 -7.171875 C 22.75 -5.753906 22.398438 -4.503906 21.703125 -3.421875 C 21.015625 -2.347656 20.007812 -1.507812 18.6875 -0.90625 C 17.375 -0.300781 15.820312 0 14.03125 0 L 2.609375 0 L 2.609375 -26.46875 L 13.53125 -26.46875 C 15.332031 -26.46875 16.882812 -26.175781 18.1875 -25.59375 C 19.488281 -25.007812 20.472656 -24.195312 21.140625 -23.15625 C 21.804688 -22.125 22.140625 -20.953125 22.140625 -19.640625 C 22.140625 -18.097656 21.726562 -16.804688 20.90625 -15.765625 C 20.09375 -14.734375 19.003906 -14.003906 17.640625 -13.578125 Z M 7.921875 -15.546875 L 12.78125 -15.546875 C 14.039062 -15.546875 15.007812 -15.828125 15.6875 -16.390625 C 16.375 -16.960938 16.71875 -17.78125 16.71875 -18.84375 C 16.71875 -19.90625 16.375 -20.726562 15.6875 -21.3125 C 15.007812 -21.894531 14.039062 -22.1875 12.78125 -22.1875 L 7.921875 -22.1875 Z M 13.265625 -4.328125 C 14.554688 -4.328125 15.5625 -4.628906 16.28125 -5.234375 C 17.007812 -5.835938 17.375 -6.695312 17.375 -7.8125 C 17.375 -8.945312 16.992188 -9.835938 16.234375 -10.484375 C 15.472656 -11.128906 14.445312 -11.453125 13.15625 -11.453125 L 7.921875 -11.453125 L 7.921875 -4.328125 Z M 13.265625 -4.328125 "/></g></g></g><g fill="#07060e" fill-opacity="1"><g transform="translate(164.803001, 211.840078)"><g><path d="M 11.953125 0.34375 C 9.921875 0.34375 8.097656 -0.101562 6.484375 -1 C 4.867188 -1.894531 3.597656 -3.164062 2.671875 -4.8125 C 1.753906 -6.457031 1.296875 -8.351562 1.296875 -10.5 C 1.296875 -12.65625 1.769531 -14.550781 2.71875 -16.1875 C 3.664062 -17.832031 4.957031 -19.101562 6.59375 -20 C 8.238281 -20.894531 10.070312 -21.34375 12.09375 -21.34375 C 14.113281 -21.34375 15.945312 -20.894531 17.59375 -20 C 19.238281 -19.101562 20.535156 -17.832031 21.484375 -16.1875 C 22.429688 -14.550781 22.90625 -12.65625 22.90625 -10.5 C 22.90625 -8.351562 22.414062 -6.457031 21.4375 -4.8125 C 20.46875 -3.164062 19.15625 -1.894531 17.5 -1 C 15.84375 -0.101562 13.992188 0.34375 11.953125 0.34375 Z M 11.953125 -4.28125 C 12.910156 -4.28125 13.8125 -4.515625 14.65625 -4.984375 C 15.5 -5.453125 16.171875 -6.15625 16.671875 -7.09375 C 17.179688 -8.03125 17.4375 -9.164062 17.4375 -10.5 C 17.4375 -12.5 16.910156 -14.035156 15.859375 -15.109375 C 14.816406 -16.179688 13.535156 -16.71875 12.015625 -16.71875 C 10.503906 -16.71875 9.234375 -16.179688 8.203125 -15.109375 C 7.179688 -14.035156 6.671875 -12.5 6.671875 -10.5 C 6.671875 -8.507812 7.171875 -6.972656 8.171875 -5.890625 C 9.171875 -4.816406 10.429688 -4.28125 11.953125 -4.28125 Z M 11.953125 -4.28125 "/></g></g></g><g fill="#07060e" fill-opacity="1"><g transform="translate(188.041533, 211.840078)"><g><path d="M 11.953125 0.34375 C 9.921875 0.34375 8.097656 -0.101562 6.484375 -1 C 4.867188 -1.894531 3.597656 -3.164062 2.671875 -4.8125 C 1.753906 -6.457031 1.296875 -8.351562 1.296875 -10.5 C 1.296875 -12.65625 1.769531 -14.550781 2.71875 -16.1875 C 3.664062 -17.832031 4.957031 -19.101562 6.59375 -20 C 8.238281 -20.894531 10.070312 -21.34375 12.09375 -21.34375 C 14.113281 -21.34375 15.945312 -20.894531 17.59375 -20 C 19.238281 -19.101562 20.535156 -17.832031 21.484375 -16.1875 C 22.429688 -14.550781 22.90625 -12.65625 22.90625 -10.5 C 22.90625 -8.351562 22.414062 -6.457031 21.4375 -4.8125 C 20.46875 -3.164062 19.15625 -1.894531 17.5 -1 C 15.84375 -0.101562 13.992188 0.34375 11.953125 0.34375 Z M 11.953125 -4.28125 C 12.910156 -4.28125 13.8125 -4.515625 14.65625 -4.984375 C 15.5 -5.453125 16.171875 -6.15625 16.671875 -7.09375 C 17.179688 -8.03125 17.4375 -9.164062 17.4375 -10.5 C 17.4375 -12.5 16.910156 -14.035156 15.859375 -15.109375 C 14.816406 -16.179688 13.535156 -16.71875 12.015625 -16.71875 C 10.503906 -16.71875 9.234375 -16.179688 8.203125 -15.109375 C 7.179688 -14.035156 6.671875 -12.5 6.671875 -10.5 C 6.671875 -8.507812 7.171875 -6.972656 8.171875 -5.890625 C 9.171875 -4.816406 10.429688 -4.28125 11.953125 -4.28125 Z M 11.953125 -4.28125 "/></g></g></g><g fill="#07060e" fill-opacity="1"><g transform="translate(211.280064, 211.840078)"><g><path d="M 15.0625 0 L 7.921875 -8.953125 L 7.921875 0 L 2.609375 0 L 2.609375 -28.0625 L 7.921875 -28.0625 L 7.921875 -12.09375 L 14.984375 -21.015625 L 21.875 -21.015625 L 12.625 -10.46875 L 21.953125 0 Z M 15.0625 0 "/></g></g></g><g fill="#07060e" fill-opacity="1"><g transform="translate(232.471443, 211.840078)"><g><path d="M 10.65625 0.34375 C 8.9375 0.34375 7.394531 0.0351562 6.03125 -0.578125 C 4.664062 -1.203125 3.582031 -2.046875 2.78125 -3.109375 C 1.988281 -4.171875 1.554688 -5.347656 1.484375 -6.640625 L 6.828125 -6.640625 C 6.929688 -5.828125 7.328125 -5.15625 8.015625 -4.625 C 8.710938 -4.09375 9.582031 -3.828125 10.625 -3.828125 C 11.632812 -3.828125 12.421875 -4.03125 12.984375 -4.4375 C 13.554688 -4.84375 13.84375 -5.359375 13.84375 -5.984375 C 13.84375 -6.671875 13.492188 -7.1875 12.796875 -7.53125 C 12.097656 -7.875 10.992188 -8.242188 9.484375 -8.640625 C 7.910156 -9.023438 6.625 -9.414062 5.625 -9.8125 C 4.632812 -10.21875 3.773438 -10.835938 3.046875 -11.671875 C 2.328125 -12.515625 1.96875 -13.644531 1.96875 -15.0625 C 1.96875 -16.21875 2.300781 -17.273438 2.96875 -18.234375 C 3.644531 -19.203125 4.609375 -19.960938 5.859375 -20.515625 C 7.109375 -21.066406 8.582031 -21.34375 10.28125 -21.34375 C 12.78125 -21.34375 14.773438 -20.71875 16.265625 -19.46875 C 17.753906 -18.21875 18.578125 -16.53125 18.734375 -14.40625 L 13.65625 -14.40625 C 13.570312 -15.238281 13.222656 -15.898438 12.609375 -16.390625 C 11.992188 -16.890625 11.164062 -17.140625 10.125 -17.140625 C 9.164062 -17.140625 8.425781 -16.960938 7.90625 -16.609375 C 7.382812 -16.253906 7.125 -15.757812 7.125 -15.125 C 7.125 -14.414062 7.476562 -13.878906 8.1875 -13.515625 C 8.894531 -13.148438 9.992188 -12.78125 11.484375 -12.40625 C 13.003906 -12.019531 14.253906 -11.625 15.234375 -11.21875 C 16.222656 -10.820312 17.078125 -10.195312 17.796875 -9.34375 C 18.523438 -8.5 18.898438 -7.378906 18.921875 -5.984375 C 18.921875 -4.773438 18.582031 -3.691406 17.90625 -2.734375 C 17.238281 -1.773438 16.28125 -1.019531 15.03125 -0.46875 C 13.78125 0.0703125 12.320312 0.34375 10.65625 0.34375 Z M 10.65625 0.34375 "/></g></g></g><g fill="#07060e" fill-opacity="1"><g transform="translate(252.184324, 211.840078)"><g><path d="M 8.796875 -16.640625 L 8.796875 -6.484375 C 8.796875 -5.773438 8.96875 -5.257812 9.3125 -4.9375 C 9.65625 -4.625 10.226562 -4.46875 11.03125 -4.46875 L 13.5 -4.46875 L 13.5 0 L 10.15625 0 C 5.6875 0 3.453125 -2.171875 3.453125 -6.515625 L 3.453125 -16.640625 L 0.953125 -16.640625 L 0.953125 -21.015625 L 3.453125 -21.015625 L 3.453125 -26.203125 L 8.796875 -26.203125 L 8.796875 -21.015625 L 13.5 -21.015625 L 13.5 -16.640625 Z M 8.796875 -16.640625 "/></g></g></g><g fill="#07060e" fill-opacity="1"><g transform="translate(265.945317, 211.840078)"><g><path d="M 11.953125 0.34375 C 9.921875 0.34375 8.097656 -0.101562 6.484375 -1 C 4.867188 -1.894531 3.597656 -3.164062 2.671875 -4.8125 C 1.753906 -6.457031 1.296875 -8.351562 1.296875 -10.5 C 1.296875 -12.65625 1.769531 -14.550781 2.71875 -16.1875 C 3.664062 -17.832031 4.957031 -19.101562 6.59375 -20 C 8.238281 -20.894531 10.070312 -21.34375 12.09375 -21.34375 C 14.113281 -21.34375 15.945312 -20.894531 17.59375 -20 C 19.238281 -19.101562 20.535156 -17.832031 21.484375 -16.1875 C 22.429688 -14.550781 22.90625 -12.65625 22.90625 -10.5 C 22.90625 -8.351562 22.414062 -6.457031 21.4375 -4.8125 C 20.46875 -3.164062 19.15625 -1.894531 17.5 -1 C 15.84375 -0.101562 13.992188 0.34375 11.953125 0.34375 Z M 11.953125 -4.28125 C 12.910156 -4.28125 13.8125 -4.515625 14.65625 -4.984375 C 15.5 -5.453125 16.171875 -6.15625 16.671875 -7.09375 C 17.179688 -8.03125 17.4375 -9.164062 17.4375 -10.5 C 17.4375 -12.5 16.910156 -14.035156 15.859375 -15.109375 C 14.816406 -16.179688 13.535156 -16.71875 12.015625 -16.71875 C 10.503906 -16.71875 9.234375 -16.179688 8.203125 -15.109375 C 7.179688 -14.035156 6.671875 -12.5 6.671875 -10.5 C 6.671875 -8.507812 7.171875 -6.972656 8.171875 -5.890625 C 9.171875 -4.816406 10.429688 -4.28125 11.953125 -4.28125 Z M 11.953125 -4.28125 "/></g></g></g><g fill="#07060e" fill-opacity="1"><g transform="translate(289.183849, 211.840078)"><g><path d="M 7.921875 -17.75 C 8.609375 -18.863281 9.5 -19.734375 10.59375 -20.359375 C 11.695312 -20.992188 12.957031 -21.3125 14.375 -21.3125 L 14.375 -15.734375 L 12.96875 -15.734375 C 11.300781 -15.734375 10.039062 -15.34375 9.1875 -14.5625 C 8.34375 -13.78125 7.921875 -12.414062 7.921875 -10.46875 L 7.921875 0 L 2.609375 0 L 2.609375 -21.015625 L 7.921875 -21.015625 Z M 7.921875 -17.75 "/></g></g></g><g fill="#07060e" fill-opacity="1"><g transform="translate(303.551402, 211.840078)"><g><path d="M 22.140625 -10.953125 C 22.140625 -10.203125 22.09375 -9.519531 22 -8.90625 L 6.640625 -8.90625 C 6.765625 -7.394531 7.289062 -6.207031 8.21875 -5.34375 C 9.15625 -4.488281 10.3125 -4.0625 11.6875 -4.0625 C 13.65625 -4.0625 15.054688 -4.90625 15.890625 -6.59375 L 21.609375 -6.59375 C 21.003906 -4.570312 19.84375 -2.910156 18.125 -1.609375 C 16.40625 -0.304688 14.296875 0.34375 11.796875 0.34375 C 9.773438 0.34375 7.957031 -0.101562 6.34375 -1 C 4.738281 -1.894531 3.488281 -3.164062 2.59375 -4.8125 C 1.695312 -6.457031 1.25 -8.351562 1.25 -10.5 C 1.25 -12.675781 1.691406 -14.585938 2.578125 -16.234375 C 3.460938 -17.878906 4.703125 -19.140625 6.296875 -20.015625 C 7.890625 -20.898438 9.722656 -21.34375 11.796875 -21.34375 C 13.796875 -21.34375 15.582031 -20.910156 17.15625 -20.046875 C 18.738281 -19.191406 19.960938 -17.972656 20.828125 -16.390625 C 21.703125 -14.816406 22.140625 -13.003906 22.140625 -10.953125 Z M 16.640625 -12.46875 C 16.617188 -13.84375 16.128906 -14.9375 15.171875 -15.75 C 14.210938 -16.570312 13.035156 -16.984375 11.640625 -16.984375 C 10.328125 -16.984375 9.222656 -16.582031 8.328125 -15.78125 C 7.429688 -14.988281 6.878906 -13.882812 6.671875 -12.46875 Z M 16.640625 -12.46875 "/></g></g></g></svg>